<svg
        xmlns="http://www.w3.org/2000/svg" version="1.1" x="0px" y="0px" viewBox="0 0 100 125">
    <g transform="translate(0,-952.36218)">
        <path d="m 25.9375,962.375 c -2.570501,0.056 -4.833301,1.45235 -6.1875,3 l -7,8 c -2.24138,2.56157 -2.75,5.88487 -2.75,9 0,10.58755 7.283252,25.4994 20.875,39.0938 13.594315,13.5917 28.537428,20.9061 39.125,20.9062 3.115038,0 6.407121,-0.5085 8.96875,-2.75 l 8,-7 c 1.547627,-1.3543 2.975073,-3.6172 3.03125,-6.1875 0.05806,-2.6764 -1.39081,-4.7033 -2.875,-6.1875 l -11,-11 c -1.403664,-1.4036 -3.522068,-2.8752 -6.125,-2.875 -2.796949,-2e-4 -4.885677,1.6357 -6.125,2.875 l -3.96875,3.9375 c -0.645307,0.5729 -0.988536,0.7993 -1.21875,0.6247 l -20.125,-20.125 c -0.271824,-0.41051 0.152151,-0.74215 0.382615,-1.01874 0.05378,-0.0627 4.179885,-4.19996 4.179885,-4.19996 1.239423,-1.23917 2.875,-3.29676 2.875,-6.0935 0,-2.60271 -1.471277,-4.72128 -2.875,-6.125 l -11,-11 c -1.484232,-1.48423 -3.510886,-2.93324 -6.1875,-2.875 z m 1.9375,7.09375 11,11 c 0.817721,0.69962 1.190124,1.36121 1.183024,1.93573 -0.0086,0.69635 -0.547917,1.2801 -1.183024,1.84552 0,0 -4.160101,4.16632 -4.223277,4.23468 -2.462835,2.46694 -2.946797,6.24523 -0.776723,8.98402 l 21,21 c 2.795781,2.2151 6.454551,1.4905 8.8321,-0.5804 0.131164,-0.1159 4.4179,-4.4191 4.4179,-4.4191 0.687688,-0.732 1.307583,-1.1069 1.87759,-1.0966 0.715785,0.013 1.347322,0.5714 1.87241,1.0966 l 11,11 c 1.652252,1.7038 1.334322,2.8772 0.15625,3.625 l -8,7 c -0.782773,0.6848 -2.70551,1.2811 -5.03125,1.2811 -7.57852,-10e-5 -22.130545,-6.3829 -34.875,-19.125 C 22.382948,1004.5055 16,989.95335 16,982.375 c 0,-2.32573 0.565128,-4.24854 1.25,-5.03125 l 7,-8 c 1.241704,-1.50857 2.377401,-1.0967 3.625,0.125 z"
              style="font-size:medium;font-style:normal;font-variant:normal;font-weight:normal;font-stretch:normal;text-indent:0;text-align:start;text-decoration:none;line-height:normal;letter-spacing:normal;word-spacing:normal;text-transform:none;direction:ltr;block-progression:tb;writing-mode:lr-tb;text-anchor:start;baseline-shift:baseline;opacity:1;color:#000000;fill:#fff;fill-opacity:1;stroke:none;stroke-width:6;marker:none;visibility:visible;display:inline;overflow:visible;enable-background:accumulate;font-family:Sans;-inkscape-font-specification:Sans"/>
    </g>
    <text x="0" y="115" fill="#fff" font-size="5px" font-weight="bold"
          font-family="'Helvetica Neue', Helvetica, Arial-Unicode, Arial, Sans-serif">Created by Icons fest
    </text>
    <text x="0" y="120" fill="#fff" font-size="5px" font-weight="bold"
          font-family="'Helvetica Neue', Helvetica, Arial-Unicode, Arial, Sans-serif">from the Noun Project
    </text>
</svg>
