<svg xmlns="http://www.w3.org/2000/svg" version="1.1" x="0px" y="0px" viewBox="0 0 48 60"
     style="enable-background:new 0 0 48 48;" xml:space="preserve"><g><g><path fill="#fff" d="M46,27h-2v-4c0-0.55-0.45-1-1-1h-2.81l-2.38-6.35C37.67,15.26,37.3,15,36.88,15H29v-2c0-0.55-0.45-1-1-1H8    c-0.55,0-1,0.45-1,1v4H2c-0.55,0-1,0.45-1,1s0.45,1,1,1h5v2H4c-0.55,0-1,0.45-1,1s0.45,1,1,1h3v2H2c-0.55,0-1,0.45-1,1s0.45,1,1,1    h5v4c0,0.55,0.45,1,1,1h3.1c0.46,2.28,2.48,4,4.9,4s4.43-1.72,4.9-4H28h2.1c0.46,2.28,2.48,4,4.9,4s4.43-1.72,4.9-4H46    c0.55,0,1-0.45,1-1v-3C47,27.45,46.55,27,46,27z M38.06,22H33v-5h3.19L38.06,22z M9,14h18v2v14h-6.1c-0.46-2.28-2.48-4-4.9-4    s-4.43,1.72-4.9,4H9V14z M16,34c-1.65,0-3-1.35-3-3s1.35-3,3-3s3,1.35,3,3S17.65,34,16,34z M35,34c-1.65,0-3-1.35-3-3s1.35-3,3-3    s3,1.35,3,3S36.65,34,35,34z M45,30h-5.1c-0.46-2.28-2.48-4-4.9-4s-4.43,1.72-4.9,4H29V17h2v6c0,0.55,0.45,1,1,1h7.5H40h2v4    c0,0.55,0.45,1,1,1h2V30z"/></g></g>
    <text x="0" y="63" fill="#fff" font-size="5px" font-weight="bold"
          font-family="'Helvetica Neue', Helvetica, Arial-Unicode, Arial, Sans-serif">Created by anggun</text>
    <text x="0" y="68" fill="#fff" font-size="5px" font-weight="bold"
          font-family="'Helvetica Neue', Helvetica, Arial-Unicode, Arial, Sans-serif">from the Noun Project</text></svg>
